<?xml version="1.0" standalone="no"?>
<!DOCTYPE svg PUBLIC "-//W3C//DTD SVG 20010904//EN"
 "http://www.w3.org/TR/2001/REC-SVG-20010904/DTD/svg10.dtd">
<svg version="1.0" xmlns="http://www.w3.org/2000/svg"
 width="1920.000000pt" height="1916.000000pt" viewBox="0 0 1920.000000 1916.000000"
 preserveAspectRatio="xMidYMid meet">

<g transform="translate(0.000000,1916.000000) scale(0.100000,-0.100000)"
fill="#000000" stroke="none">
<path d="M7742 13290 c-12 -16 -22 -34 -22 -40 0 -12 -40 -105 -66 -152 -8
-14 -14 -31 -14 -38 0 -6 -12 -37 -26 -68 -14 -31 -35 -77 -46 -102 -11 -25
-23 -52 -28 -61 -4 -8 -20 -47 -34 -85 -15 -38 -36 -88 -46 -111 -37 -80 -58
-128 -80 -183 -25 -63 -38 -92 -74 -172 -14 -31 -26 -60 -26 -65 0 -4 -9 -26
-19 -48 -39 -82 -61 -132 -61 -140 0 -5 -9 -29 -21 -54 -71 -155 -99 -220 -99
-230 0 -5 -6 -22 -14 -38 -7 -15 -22 -48 -34 -73 -11 -25 -29 -66 -41 -91 -12
-25 -21 -50 -21 -55 -1 -5 -9 -27 -20 -49 -11 -22 -19 -45 -20 -52 0 -7 -8
-29 -19 -50 -20 -40 -65 -138 -86 -188 -7 -16 -22 -51 -34 -76 -12 -25 -21
-50 -21 -55 0 -5 -10 -29 -21 -54 -12 -25 -28 -58 -34 -75 -7 -16 -23 -51 -34
-76 -12 -25 -21 -49 -21 -53 0 -8 -15 -43 -104 -238 -14 -31 -26 -61 -26 -67
0 -5 -7 -22 -15 -38 -14 -28 -27 -58 -79 -183 -15 -36 -33 -78 -41 -95 -7 -16
-23 -55 -35 -85 -13 -30 -34 -80 -47 -110 -48 -105 -52 -115 -79 -184 -14 -38
-30 -77 -34 -85 -5 -9 -17 -36 -28 -61 -11 -25 -32 -71 -46 -102 -14 -31 -26
-61 -26 -67 0 -5 -7 -22 -15 -38 -18 -36 -47 -102 -80 -183 -32 -81 -46 -113
-74 -170 -11 -25 -21 -49 -21 -53 0 -9 -43 -107 -66 -149 -8 -14 -14 -32 -14
-38 0 -7 -9 -34 -21 -59 -12 -25 -29 -64 -39 -86 -9 -22 -27 -60 -38 -85 -12
-25 -33 -76 -48 -114 -14 -38 -30 -77 -34 -85 -11 -21 -42 -91 -75 -171 -15
-36 -33 -78 -40 -95 -8 -16 -26 -59 -40 -95 -33 -81 -62 -147 -80 -183 -8 -16
-15 -33 -15 -38 0 -6 -12 -36 -26 -67 -53 -117 -88 -198 -114 -262 -12 -30
-30 -73 -40 -95 -20 -44 -32 -72 -66 -159 -17 -42 -21 -63 -14 -70 13 -13
1416 -22 1565 -11 l94 7 24 51 c13 29 34 77 47 107 12 30 30 73 40 95 10 22
28 65 40 95 13 30 32 75 43 100 11 25 26 59 32 75 7 17 23 51 34 76 12 25 21
49 21 54 0 5 9 28 20 52 11 24 29 62 40 86 11 24 20 48 20 53 0 5 7 22 16 39
8 16 27 59 41 95 14 36 37 90 50 120 14 30 30 69 37 85 7 17 22 50 33 75 19
42 39 96 49 130 5 16 -142 203 -236 299 -9 9 -47 54 -85 101 -39 46 -77 92
-85 100 -8 9 -38 43 -66 75 -29 33 -94 109 -145 168 -104 120 -130 157 -123
169 3 4 250 8 549 8 l543 0 26 31 c14 17 26 37 26 45 0 15 35 98 65 157 8 16
15 34 15 40 0 7 9 29 20 50 11 20 20 43 20 49 0 7 6 25 14 40 8 14 19 43 26
65 7 21 19 47 26 58 8 11 14 26 14 34 0 7 9 32 19 55 20 41 72 169 96 236 8
19 20 49 29 65 9 17 16 37 16 45 0 9 6 24 14 35 7 11 19 37 26 58 7 22 18 51
26 65 8 15 14 32 14 39 0 6 7 24 15 40 22 44 52 116 60 143 4 14 13 34 19 45
7 11 15 31 18 45 5 22 67 177 102 255 8 17 24 57 36 90 34 94 63 164 114 277
14 31 26 60 26 64 0 3 12 37 27 75 32 81 44 78 54 -14 7 -76 -7 -925 -21
-1242 -12 -280 -13 -450 -1 -490 5 -18 3 -78 -4 -150 -7 -66 -16 -208 -19
-315 -4 -107 -11 -199 -16 -204 -7 -7 -262 -10 -690 -11 -439 0 -682 -4 -689
-10 -6 -7 12 -33 55 -78 35 -38 105 -117 156 -175 149 -173 246 -280 363 -400
61 -63 114 -121 119 -130 5 -9 15 -21 21 -27 7 -5 38 -44 70 -85 69 -89 166
-201 244 -285 31 -33 70 -77 86 -98 28 -36 31 -37 52 -22 13 9 23 30 28 57 3
24 15 84 26 133 10 50 29 133 40 185 11 52 29 129 39 170 10 41 21 96 24 123
3 26 12 68 20 95 15 50 28 110 52 232 7 41 18 86 24 100 5 14 14 56 20 94 6
38 15 76 19 85 5 9 14 48 20 88 6 39 15 82 20 95 5 13 12 48 16 78 4 30 13 71
20 90 7 19 16 60 20 90 4 30 13 71 20 90 7 19 16 60 20 90 4 30 13 71 20 91 7
20 16 63 20 95 4 33 11 66 16 75 5 9 14 50 20 90 6 41 15 81 20 90 4 9 13 47
19 85 6 38 15 80 20 94 6 14 17 61 25 105 29 146 42 209 59 285 43 181 56 237
61 275 4 22 13 58 20 81 8 22 17 81 21 130 4 55 24 150 51 249 24 88 51 193
58 233 8 40 17 77 20 83 4 5 12 44 19 86 12 71 26 133 58 263 24 99 34 178 26
200 -5 12 -26 44 -48 70 -22 26 -40 52 -40 57 0 6 -10 18 -21 29 -19 17 -135
166 -224 287 -16 23 -82 107 -145 189 -63 81 -135 174 -160 207 l-45 61 -480
0 -481 0 -22 -30z"/>
<path d="M9067 13280 c3 -11 12 -20 19 -20 8 0 14 -4 14 -9 0 -7 19 -31 64
-81 7 -8 17 -25 20 -37 4 -13 12 -23 17 -23 5 0 14 -11 19 -25 5 -14 16 -25
25 -25 8 0 15 -7 15 -15 0 -7 7 -18 15 -23 16 -8 51 -62 61 -94 4 -10 15 -20
25 -23 10 -4 19 -13 19 -20 0 -8 9 -19 20 -25 11 -6 20 -15 20 -20 0 -6 9 -19
20 -30 11 -11 20 -29 20 -40 0 -11 7 -20 15 -20 9 0 19 -8 22 -17 4 -10 15
-24 25 -31 10 -7 18 -20 18 -28 0 -8 7 -14 15 -14 8 0 15 -6 15 -14 0 -8 11
-28 25 -44 14 -17 25 -35 25 -41 0 -6 7 -11 15 -11 8 0 15 -4 15 -10 0 -5 10
-18 21 -29 27 -25 31 -91 7 -118 -10 -12 -17 -42 -20 -90 -2 -47 -9 -78 -20
-90 -10 -12 -17 -44 -20 -96 -3 -52 -10 -83 -22 -95 -11 -13 -16 -37 -16 -79
0 -70 -6 -93 -26 -93 -11 0 -14 -18 -14 -80 0 -67 -3 -83 -20 -100 -16 -16
-20 -33 -20 -90 0 -58 -4 -73 -20 -87 -17 -15 -20 -30 -20 -95 0 -67 -3 -80
-20 -90 -17 -11 -20 -24 -20 -84 0 -56 -4 -77 -20 -97 -16 -20 -20 -40 -20
-96 0 -60 -3 -73 -20 -83 -17 -11 -20 -24 -20 -90 0 -50 -5 -81 -13 -90 -8 -7
-17 -47 -21 -88 -4 -44 -12 -79 -20 -85 -8 -6 -16 -43 -21 -93 -4 -46 -13 -89
-20 -96 -7 -7 -16 -47 -20 -89 -4 -42 -13 -81 -20 -87 -8 -7 -16 -46 -20 -95
-5 -57 -12 -85 -21 -89 -10 -4 -14 -25 -14 -73 0 -48 -5 -77 -19 -98 -11 -19
-20 -58 -23 -105 -4 -48 -11 -77 -20 -84 -10 -8 -17 -36 -20 -89 -3 -52 -10
-83 -22 -95 -11 -13 -16 -37 -16 -85 0 -55 -4 -70 -20 -84 -17 -15 -20 -30
-20 -90 0 -60 -4 -77 -20 -93 -16 -16 -20 -33 -20 -90 0 -58 -4 -73 -20 -87
-17 -15 -20 -30 -20 -90 0 -60 -4 -77 -20 -93 -16 -16 -20 -33 -20 -89 0 -53
-4 -74 -20 -94 -16 -20 -20 -40 -20 -96 0 -60 -3 -73 -20 -83 -17 -11 -20 -24
-20 -90 0 -52 -4 -81 -14 -91 -8 -8 -17 -47 -21 -91 -5 -48 -12 -79 -20 -82
-8 -4 -16 -37 -20 -95 -5 -59 -12 -92 -20 -95 -8 -4 -16 -35 -20 -85 -5 -51
-12 -82 -20 -85 -8 -3 -15 -36 -20 -90 -4 -46 -13 -90 -20 -97 -7 -7 -14 -45
-17 -84 -2 -47 -9 -78 -20 -90 -10 -12 -17 -42 -20 -90 -3 -52 -9 -77 -22 -92
l-19 -21 751 0 752 0 1 43 c1 48 3 57 23 112 8 22 15 55 16 73 0 18 6 35 14
38 9 3 16 32 20 85 5 51 12 82 20 85 9 3 16 35 21 87 3 45 13 89 20 97 7 8 15
47 17 87 2 47 9 78 20 90 10 12 17 42 20 90 2 49 9 77 21 91 12 13 17 36 17
74 0 56 16 118 30 118 4 0 10 34 12 76 2 55 8 79 20 88 12 8 17 33 19 95 3 64
8 86 22 95 13 10 17 28 17 78 0 50 5 71 20 91 16 20 20 40 20 96 0 58 4 75 20
91 16 16 20 33 20 93 0 61 3 77 20 92 16 15 20 31 20 87 0 55 4 72 20 88 16
16 20 33 20 95 0 63 3 78 20 92 17 15 20 30 20 91 0 52 4 74 14 78 9 3 16 32
21 87 3 45 13 89 20 97 7 8 15 34 16 57 3 38 -2 47 -51 104 -30 34 -64 72 -75
83 -12 12 -24 29 -28 39 -3 9 -13 17 -22 17 -8 0 -15 9 -15 20 0 12 -7 20 -16
20 -9 0 -18 9 -21 20 -3 11 -12 20 -20 20 -8 0 -17 9 -20 20 -3 11 -12 20 -20
20 -8 0 -17 9 -20 20 -3 11 -11 20 -18 20 -8 0 -17 9 -20 20 -3 11 -12 20 -20
20 -8 0 -17 9 -20 20 -3 11 -13 20 -21 20 -8 0 -14 4 -14 10 0 5 -18 27 -40
49 -22 22 -40 44 -40 50 0 6 -7 11 -16 11 -9 0 -18 9 -21 20 -3 11 -12 20 -19
20 -8 0 -17 7 -21 15 -5 15 -28 41 -123 142 -22 23 -40 47 -40 52 0 6 -9 15
-20 21 -11 6 -20 17 -20 24 0 8 -9 16 -20 19 -11 3 -20 12 -20 20 0 8 -9 17
-20 20 -11 3 -20 12 -20 21 0 9 -7 16 -15 16 -9 0 -19 8 -22 17 -4 9 -14 24
-24 34 -11 11 -15 26 -12 38 5 21 7 21 573 21 l568 0 7 38 c3 20 19 66 35 102
16 36 31 84 33 108 3 24 12 51 21 61 11 12 16 37 16 83 0 50 5 71 20 91 15 19
20 40 20 91 0 54 4 69 20 83 17 15 20 30 20 91 0 65 2 74 20 79 18 5 20 14 20
89 0 73 3 85 20 96 17 11 20 24 20 84 0 48 4 75 14 83 8 7 16 44 21 94 3 45
12 89 20 97 7 8 15 49 19 89 4 41 13 82 20 90 7 9 16 50 20 90 4 41 13 82 20
90 8 9 17 52 21 96 4 44 13 87 20 95 7 8 15 47 17 87 4 48 11 77 22 88 10 11
16 33 16 66 l0 49 -1144 0 c-1139 0 -1144 0 -1139 -20z"/>
<path d="M11878 13277 c12 -13 22 -31 22 -40 0 -9 7 -17 16 -17 9 0 18 -9 21
-20 3 -11 10 -20 17 -20 12 -1 66 -81 66 -99 0 -6 5 -11 10 -11 6 0 16 -11 22
-25 6 -14 17 -25 25 -25 7 0 13 -7 13 -15 0 -8 9 -19 20 -25 11 -6 20 -16 20
-23 0 -7 9 -20 20 -30 11 -9 20 -26 20 -37 0 -11 7 -20 15 -20 9 0 20 -11 24
-24 5 -13 17 -26 25 -29 9 -4 16 -13 16 -22 0 -8 5 -15 11 -15 5 0 16 -15 24
-34 8 -18 21 -36 30 -39 8 -4 15 -13 15 -22 0 -8 7 -15 15 -15 9 0 20 -11 25
-25 5 -14 14 -25 20 -25 5 0 10 -6 10 -13 0 -8 11 -24 25 -37 14 -13 25 -31
25 -41 0 -9 10 -19 21 -22 20 -5 21 -11 17 -83 -4 -52 -10 -81 -20 -88 -10 -8
-17 -36 -20 -89 -3 -49 -11 -84 -20 -95 -10 -10 -17 -45 -21 -91 -3 -53 -9
-78 -21 -86 -12 -9 -16 -29 -16 -78 0 -64 -14 -117 -32 -117 -4 0 -8 -31 -8
-70 0 -55 -4 -74 -19 -89 -15 -15 -20 -37 -22 -101 -3 -64 -8 -84 -22 -91 -14
-8 -17 -24 -17 -83 0 -60 -3 -76 -20 -91 -16 -15 -20 -31 -20 -86 0 -76 -6
-99 -26 -99 -11 0 -14 -18 -14 -78 0 -64 -4 -82 -20 -100 -11 -12 -20 -34 -20
-49 0 -57 49 -54 -831 -54 -448 0 -824 -2 -836 -5 -21 -6 -21 -6 -2 -27 11
-12 28 -31 38 -42 10 -11 21 -28 24 -37 4 -10 13 -18 22 -18 8 0 15 -9 15 -20
0 -12 7 -20 16 -20 9 0 18 -9 21 -20 3 -11 12 -20 20 -20 8 0 17 -9 20 -20 3
-11 12 -20 20 -20 8 0 17 -9 20 -20 3 -11 12 -20 19 -20 8 0 18 -8 21 -17 4
-9 32 -42 62 -73 60 -60 176 -189 201 -222 8 -11 23 -28 33 -36 9 -9 17 -22
17 -29 0 -7 7 -13 16 -13 9 0 18 -9 21 -20 3 -11 12 -20 20 -20 8 0 17 -9 20
-20 3 -11 12 -20 19 -20 8 0 17 -7 20 -15 4 -8 39 -49 80 -89 41 -41 74 -77
74 -80 0 -3 29 -35 65 -71 36 -36 65 -72 65 -80 0 -23 61 -28 236 -22 121 4
166 2 179 -7 25 -18 19 -191 -7 -210 -14 -10 -18 -28 -18 -83 0 -55 -4 -76
-20 -96 -15 -19 -20 -40 -20 -91 0 -53 -4 -70 -20 -86 l-20 -20 25 0 c15 0 25
6 25 14 0 15 21 26 49 26 9 0 24 9 34 20 9 11 28 20 42 20 14 0 34 9 45 20 11
11 32 20 46 20 14 0 32 7 40 15 9 8 27 18 42 22 15 3 38 14 51 25 13 10 29 18
36 18 7 0 18 6 24 14 7 8 25 18 41 21 16 3 34 13 41 21 6 8 19 14 29 14 9 0
29 9 43 20 14 11 32 20 40 20 7 0 24 9 37 20 13 11 31 20 40 20 9 0 27 9 40
20 13 11 31 20 40 20 10 0 23 7 30 15 6 8 21 17 31 20 11 4 43 22 72 41 28 19
58 34 65 34 7 0 32 10 55 22 103 53 98 52 113 36 8 -8 14 -23 14 -34 -1 -10
-3 -79 -5 -152 -3 -126 -5 -135 -30 -168 -15 -19 -44 -46 -66 -61 -21 -14 -39
-30 -39 -34 0 -5 -5 -9 -12 -9 -6 0 -32 -17 -57 -39 -26 -21 -56 -41 -69 -45
-12 -4 -22 -11 -22 -16 0 -5 -16 -14 -35 -21 -19 -7 -35 -16 -35 -21 0 -4 -12
-13 -26 -21 -22 -11 -23 -15 -11 -26 10 -8 17 -9 22 -1 3 5 17 10 30 10 13 0
28 6 32 14 7 12 81 54 181 101 17 8 32 20 32 25 0 6 6 10 14 10 8 0 21 6 28
13 7 7 28 19 46 26 17 7 32 17 32 22 0 4 10 11 23 14 12 4 37 14 54 22 59 27
62 21 65 -152 2 -116 0 -159 -9 -167 -7 -6 -13 -15 -13 -21 0 -8 -33 -42 -95
-95 -36 -32 -221 -152 -233 -152 -7 0 -12 -4 -12 -8 0 -16 -166 -112 -193
-112 -8 0 -17 -6 -20 -14 -3 -7 -18 -17 -33 -20 -15 -4 -39 -16 -52 -27 -14
-10 -31 -19 -39 -19 -8 0 -26 -9 -40 -20 -14 -11 -34 -20 -43 -20 -10 0 -23
-6 -29 -14 -7 -8 -25 -18 -41 -21 -16 -3 -34 -12 -40 -20 -6 -7 -23 -16 -37
-20 -15 -3 -38 -15 -51 -26 -14 -10 -31 -19 -39 -19 -8 0 -26 -9 -40 -20 -14
-11 -34 -20 -43 -20 -10 0 -23 -7 -30 -15 -17 -20 -93 -20 -110 0 -7 8 -18 15
-25 15 -7 0 -18 7 -25 16 -8 8 -28 21 -47 29 -18 8 -33 19 -33 24 0 6 -6 11
-14 11 -7 0 -20 9 -27 20 -16 23 -36 27 -92 15 -36 -7 -40 -5 -85 42 -81 84
-97 112 -99 174 -1 44 -6 62 -26 82 l-24 27 -21 -23 c-40 -42 -52 -91 -56
-222 -3 -115 -2 -125 15 -130 14 -5 19 -16 19 -41 0 -26 9 -45 40 -78 22 -24
40 -47 40 -51 0 -9 7 -17 75 -86 45 -46 46 -47 43 -105 -3 -59 -3 -59 -33 -57
-30 2 -65 34 -125 112 -14 18 -33 40 -42 49 -10 9 -18 30 -18 47 0 19 -7 35
-20 43 -12 7 -20 23 -20 41 0 20 -6 30 -20 34 -17 4 -20 14 -20 62 0 52 -2 56
-21 53 -17 -2 -27 -18 -45 -73 -19 -56 -24 -92 -24 -183 -1 -63 3 -119 9 -126
5 -6 15 -34 21 -60 6 -27 20 -61 30 -77 11 -15 20 -32 20 -39 0 -11 29 -57 58
-90 38 -45 113 -120 120 -120 11 0 42 -59 42 -80 0 -10 -4 -21 -9 -24 -4 -3
-10 -42 -13 -86 -3 -53 -10 -86 -20 -97 -10 -11 -17 -42 -20 -81 l-3 -62 346
0 c335 0 347 1 352 19 3 13 -1 21 -12 24 -11 3 -9 5 7 6 19 1 22 7 22 39 0 21
-5 43 -12 50 -9 9 -8 21 2 51 7 22 10 53 6 73 -14 73 -14 73 27 72 21 -1 77
-18 125 -39 160 -69 177 -77 247 -110 79 -38 232 -109 255 -119 8 -3 34 -17
57 -30 36 -21 42 -21 46 -7 6 26 -3 40 -41 62 -21 11 -55 30 -77 43 -22 13
-71 40 -110 60 -38 20 -77 41 -85 46 -8 4 -54 27 -102 50 -48 23 -104 57 -125
76 -20 19 -40 34 -43 34 -10 0 -11 38 -11 275 0 122 9 141 53 111 12 -9 32
-16 44 -16 23 0 80 -23 225 -89 25 -12 51 -21 58 -21 6 0 28 -9 48 -20 21 -11
45 -20 54 -20 9 0 22 -6 28 -14 7 -8 27 -18 44 -21 18 -4 39 -13 48 -21 8 -8
28 -15 43 -16 15 -1 32 -8 38 -15 18 -22 28 -14 28 21 0 19 6 36 14 39 9 4 15
31 18 88 3 57 9 85 20 93 10 8 17 36 20 89 3 49 11 84 20 95 10 10 17 45 21
91 3 53 9 78 21 86 11 9 16 28 16 66 0 61 16 129 30 129 6 0 10 32 10 70 0 55
4 74 19 89 15 15 20 37 23 101 2 63 7 85 21 94 13 10 17 28 17 80 0 54 4 69
20 83 11 10 20 30 20 46 0 16 7 30 16 34 22 8 139 125 147 147 4 9 13 16 22
16 8 0 15 9 15 20 0 11 9 28 20 37 11 10 20 23 20 29 0 6 9 21 20 34 11 13 20
35 20 49 0 14 7 40 16 56 28 52 40 305 18 374 -8 25 -42 -17 -49 -61 -4 -21
-13 -42 -20 -44 -7 -3 -15 -17 -19 -32 -9 -39 -70 -107 -90 -99 -23 9 -21 69
4 117 11 22 20 56 20 77 0 21 9 55 20 76 12 22 20 56 20 84 0 27 5 66 11 88 6
22 15 78 21 125 6 47 16 90 23 95 7 6 16 47 20 95 4 49 13 89 20 95 8 6 15 39
17 82 2 47 9 78 20 90 10 12 17 44 20 96 4 54 10 81 20 90 11 8 17 36 20 90 4
52 10 83 22 95 11 13 16 37 16 84 0 50 5 71 20 91 15 19 20 40 20 91 0 53 4
70 20 86 16 16 20 33 20 89 0 53 4 74 20 94 15 18 20 40 20 84 0 72 8 103 26
103 11 0 14 19 14 80 0 67 3 83 20 100 16 16 20 33 20 90 0 59 3 72 20 82 17
11 20 24 20 88 0 50 5 83 14 96 8 11 18 56 22 98 4 48 12 80 20 83 8 3 15 36
19 90 5 53 12 86 20 89 8 3 16 35 20 82 4 42 13 85 20 96 8 12 17 55 20 96 4
41 13 80 20 85 7 6 14 46 18 95 4 57 10 88 20 95 10 7 16 33 19 73 l3 62
-1144 0 -1144 0 21 -23z"/>
<path d="M11612 13163 c-9 -16 -9 -24 -1 -29 16 -10 28 8 19 31 -7 19 -7 19
-18 -2z"/>
<path d="M6036 9905 c4 -8 7 -15 9 -15 2 0 5 7 9 15 3 9 0 15 -9 15 -9 0 -12
-6 -9 -15z"/>
<path d="M5920 9634 c0 -8 5 -12 10 -9 6 4 8 11 5 16 -9 14 -15 11 -15 -7z"/>
<path d="M11767 8640 c-9 -11 -27 -20 -40 -20 -25 0 -67 -26 -67 -41 0 -16 39
-10 60 11 11 11 31 20 45 20 13 0 28 6 32 13 4 8 17 19 28 25 18 10 17 11 -10
12 -18 0 -37 -8 -48 -20z"/>
<path d="M5451 8534 c0 -11 3 -14 6 -6 3 7 2 16 -1 19 -3 4 -6 -2 -5 -13z"/>
<path d="M13075 7080 c-3 -5 1 -10 10 -10 9 0 13 5 10 10 -3 6 -8 10 -10 10
-2 0 -7 -4 -10 -10z"/>
<path d="M13190 7006 c0 -9 7 -16 16 -16 17 0 14 22 -4 28 -7 2 -12 -3 -12
-12z"/>
<path d="M13180 6920 c-12 -8 -12 -10 3 -16 21 -8 35 2 21 16 -5 5 -15 6 -24
0z"/>
<path d="M13350 6884 c0 -8 5 -12 10 -9 6 4 8 11 5 16 -9 14 -15 11 -15 -7z"/>
<path d="M13225 6881 c-3 -5 -1 -12 5 -16 5 -3 10 1 10 9 0 18 -6 21 -15 7z"/>
<path d="M13430 6806 c0 -9 5 -16 10 -16 6 0 10 4 10 9 0 6 -4 13 -10 16 -5 3
-10 -1 -10 -9z"/>
<path d="M13420 6720 c0 -5 5 -10 10 -10 6 0 10 5 10 10 0 6 -4 10 -10 10 -5
0 -10 -4 -10 -10z"/>
<path d="M13545 6690 c-3 -5 1 -10 10 -10 9 0 13 5 10 10 -3 6 -8 10 -10 10
-2 0 -7 -4 -10 -10z"/>
<path d="M13452 6678 c6 -18 28 -21 28 -4 0 9 -7 16 -16 16 -9 0 -14 -5 -12
-12z"/>
<path d="M13580 6519 c0 -5 5 -7 10 -4 6 3 10 8 10 11 0 2 -4 4 -10 4 -5 0
-10 -5 -10 -11z"/>
<path d="M13696 6315 c4 -8 8 -15 10 -15 2 0 4 7 4 15 0 8 -4 15 -10 15 -5 0
-7 -7 -4 -15z"/>
<path d="M13780 6295 c0 -8 5 -15 10 -15 6 0 10 7 10 15 0 8 -4 15 -10 15 -5
0 -10 -7 -10 -15z"/>
<path d="M13736 6211 c-4 -5 -3 -23 0 -38 l7 -28 8 30 c8 29 -3 56 -15 36z"/>
<path d="M13820 6179 c0 -11 4 -18 10 -14 5 3 7 12 3 20 -7 21 -13 19 -13 -6z"/>
<path d="M13863 6005 c0 -22 2 -30 4 -17 2 12 2 30 0 40 -3 9 -5 -1 -4 -23z"/>
<path d="M13782 5960 c0 -14 2 -19 5 -12 2 6 2 18 0 25 -3 6 -5 1 -5 -13z"/>
</g>
</svg>
